<?xml version="1.0" standalone="no"?>
<!DOCTYPE svg PUBLIC "-//W3C//DTD SVG 20010904//EN"
 "http://www.w3.org/TR/2001/REC-SVG-20010904/DTD/svg10.dtd">
<svg version="1.0" xmlns="http://www.w3.org/2000/svg"
 width="500.000000pt" height="500.000000pt" viewBox="0 0 500.000000 500.000000"
 preserveAspectRatio="xMidYMid meet">
<metadata>
Created by potrace 1.14, written by Peter Selinger 2001-2017
</metadata>
<g transform="translate(0.000000,500.000000) scale(0.100000,-0.100000)"
fill="#000000" stroke="none">
<path d="M2440 4344 c-39 -22 -398 -219 -560 -307 -30 -16 -152 -82 -270 -147
-118 -64 -244 -133 -280 -152 -36 -20 -112 -61 -170 -93 -58 -32 -130 -71
-160 -88 -30 -16 -82 -44 -115 -62 -187 -102 -270 -148 -463 -252 -117 -64
-211 -117 -210 -118 5 -4 97 -54 178 -98 41 -22 89 -49 105 -59 17 -10 37 -21
45 -25 8 -3 53 -27 100 -53 47 -26 117 -64 155 -85 39 -21 93 -50 120 -65 42
-23 172 -94 575 -313 30 -16 69 -37 85 -47 35 -20 136 -75 245 -133 41 -22 80
-43 85 -47 6 -4 55 -31 110 -60 55 -29 105 -56 110 -60 6 -4 42 -24 80 -44 39
-21 111 -60 160 -87 50 -27 100 -55 113 -61 26 -13 10 -21 345 163 108 60 200
109 203 109 3 0 18 8 32 18 15 11 68 40 117 67 50 26 158 85 240 130 83 45
186 102 230 125 44 24 111 60 148 81 38 22 70 39 72 39 1 0 46 25 100 55 53
30 98 55 101 55 2 0 63 33 136 73 73 41 142 79 153 84 20 11 20 8 20 -705 l0
-717 153 -5 c85 -3 178 -3 208 -2 l54 4 0 833 0 833 -52 27 c-29 15 -93 50
-143 78 -49 27 -117 64 -150 82 -84 45 -176 95 -345 188 -80 44 -183 100 -230
125 -47 24 -89 48 -95 52 -5 4 -55 31 -110 60 -55 30 -120 65 -145 80 -25 14
-61 34 -80 43 -19 10 -42 22 -50 27 -14 9 -651 356 -813 443 -38 20 -74 37
-80 37 -7 0 -32 -12 -57 -26z"/>
<path d="M1042 1835 l0 -414 82 -45 c44 -24 108 -58 141 -76 33 -18 78 -43
100 -55 22 -13 67 -37 100 -55 33 -18 87 -47 120 -65 725 -396 890 -485 905
-490 12 -4 53 13 112 46 165 91 192 106 258 141 36 19 83 45 105 58 22 12 83
45 135 73 52 27 100 53 105 57 6 4 46 26 90 50 44 24 148 80 230 125 83 45
179 98 215 117 36 20 83 45 105 58 22 12 56 31 77 42 l36 19 0 415 c0 227 -2
414 -4 414 -4 0 -313 -168 -844 -458 -267 -146 -382 -209 -430 -234 -30 -17
-83 -46 -117 -65 l-62 -34 -66 35 c-36 20 -95 52 -132 72 -38 20 -111 60 -163
89 -146 81 -190 105 -255 140 -153 83 -513 280 -543 297 -19 10 -73 39 -120
65 -48 25 -106 56 -130 69 -23 13 -44 24 -47 24 -2 0 -3 -187 -3 -415z"/>
</g>
</svg>
